<?xml version="1.0" encoding="UTF-8" standalone="no"?>
<!--Designed by Vexels.com - 2017 All Rights Reserved - https://vexels.com/terms-and-conditions/-->

<svg
   xmlns:dc="http://purl.org/dc/elements/1.1/"
   xmlns:cc="http://creativecommons.org/ns#"
   xmlns:rdf="http://www.w3.org/1999/02/22-rdf-syntax-ns#"
   xmlns:svg="http://www.w3.org/2000/svg"
   xmlns="http://www.w3.org/2000/svg"
   xmlns:xlink="http://www.w3.org/1999/xlink"
   xmlns:sodipodi="http://sodipodi.sourceforge.net/DTD/sodipodi-0.dtd"
   xmlns:inkscape="http://www.inkscape.org/namespaces/inkscape"
   version="1.1"
   id="Layer_1"
   x="0px"
   y="0px"
   viewBox="0 0 1200 1200"
   enable-background="new 0 0 1200 1200"
   xml:space="preserve"
   inkscape:version="0.91 r13725"
   sodipodi:docname="wave-sound-lines-by-Vexels.svg"><metadata
     id="metadata29"><rdf:RDF><cc:Work
         rdf:about=""><dc:format>image/svg+xml</dc:format><dc:type
           rdf:resource="http://purl.org/dc/dcmitype/StillImage" /><dc:title></dc:title></cc:Work></rdf:RDF></metadata><defs
     id="defs27"><linearGradient
       inkscape:collect="always"
       id="linearGradient4362"><stop
         style="stop-color:#0000ff;stop-opacity:1;"
         offset="0"
         id="stop4364" /><stop
         style="stop-color:#0000ff;stop-opacity:0;"
         offset="1"
         id="stop4366" /></linearGradient><linearGradient
       inkscape:collect="always"
       id="linearGradient4352"><stop
         style="stop-color:#000000;stop-opacity:1;"
         offset="0"
         id="stop4354" /><stop
         style="stop-color:#000000;stop-opacity:0;"
         offset="1"
         id="stop4356" /></linearGradient><linearGradient
       inkscape:collect="always"
       xlink:href="#linearGradient4352"
       id="linearGradient4358"
       x1="49.5"
       y1="600.0005"
       x2="1150.5"
       y2="600.0005"
       gradientUnits="userSpaceOnUse" /><linearGradient
       inkscape:collect="always"
       xlink:href="#linearGradient4362"
       id="linearGradient4368"
       x1="49.5"
       y1="600.0005"
       x2="1150.5"
       y2="600.0005"
       gradientUnits="userSpaceOnUse" /><linearGradient
       inkscape:collect="always"
       xlink:href="#linearGradient4362"
       id="linearGradient4370"
       gradientUnits="userSpaceOnUse"
       x1="49.5"
       y1="600.0005"
       x2="1150.5"
       y2="600.0005"
       gradientTransform="matrix(0.01411623,-0.99990036,1.3361121,0.01886275,-194.8834,1183.5384)" /><linearGradient
       inkscape:collect="always"
       xlink:href="#linearGradient4352"
       id="linearGradient4372"
       gradientUnits="userSpaceOnUse"
       x1="49.5"
       y1="600.0005"
       x2="1150.5"
       y2="600.0005"
       gradientTransform="matrix(0.01411623,-0.99990036,1.3361121,0.01886275,-194.8834,1183.5384)" /></defs><sodipodi:namedview
     pagecolor="#ffffff"
     bordercolor="#666666"
     borderopacity="0"
     objecttolerance="10"
     gridtolerance="10"
     guidetolerance="10"
     inkscape:pageopacity="0"
     inkscape:pageshadow="2"
     inkscape:window-width="1280"
     inkscape:window-height="966"
     id="namedview25"
     showgrid="false"
     inkscape:zoom="0.27812867"
     inkscape:cx="677.07251"
     inkscape:cy="300.6532"
     inkscape:window-x="0"
     inkscape:window-y="30"
     inkscape:window-maximized="1"
     inkscape:current-layer="g3" /><g
     id="g3"
     transform="matrix(0.01411623,-0.99990036,1.3361121,0.01886275,-194.8834,1183.5384)"
     style="stroke:url(#linearGradient4358);stroke-opacity:1;fill:url(#linearGradient4368);fill-opacity:1"><path
       style="fill:url(#linearGradient4370);fill-opacity:1;stroke:url(#linearGradient4372);stroke-width:1.1559608;stroke-opacity:1"
       d="M 620.06836 44.929688 C 618.90193 44.91322 617.94987 45.604556 617.9375 46.480469 L 617.375 86.28125 C 617.0684 107.99909 595.02531 154.08911 568.24023 189.02148 L 538.43945 227.89062 C 511.0853 263.56504 500.64716 302.38902 515.17578 314.44531 C 518.7555 317.41114 520.18306 321.27029 519.40234 325.92773 C 517.4548 337.60241 501.75047 352.2158 479.38672 363.1582 C 458.45741 373.40178 446.83468 385.51147 448.27734 395.58984 C 448.91884 400.03634 452.41141 406.14303 465.37891 409.98047 C 473.46094 412.3738 477.77172 415.17907 477.49023 417.98438 C 477.09079 422.04514 466.43453 428.43909 437.72461 433.11328 C 414.30691 436.92409 408.99323 443.10637 408.6582 447.62109 C 408.09312 455.84194 423.01666 464.37296 450.78711 471.7207 C 472.72605 477.52198 487.5341 488.2626 492.48438 501.96484 C 497.83726 516.77788 491.29942 533.16856 474.06055 548.0957 L 434.80664 582.08789 C 398.78392 613.27649 398.84787 664.35269 434.94922 695.93945 L 477.64062 733.29688 C 494.28405 747.86227 500.74295 764.33462 495.82227 779.67969 C 490.90156 795.02575 475.20518 807.39044 451.61133 814.49609 L 428.06055 821.58789 C 403.22663 829.06607 389.50816 839.19258 389.35352 850.14648 C 389.35196 850.25647 389.34918 850.37128 389.35156 850.48633 C 389.47713 861.5652 403.45886 871.82189 428.7168 879.36719 L 504.21875 901.92773 C 537.24434 911.79591 560.6638 926.37576 563.875 939.06836 C 565.19921 944.28457 563.04965 948.87626 557.48438 952.70508 C 547.68441 959.44741 542.36436 968.70883 542.49023 978.72461 C 542.64302 990.05289 549.82141 1001.3317 562.18555 1009.6641 C 585.21019 1025.1756 603.61065 1061.2765 603.20312 1090.1426 L 602.45312 1143.209 C 602.44077 1144.0839 603.37459 1144.8038 604.54102 1144.8203 C 604.65272 1144.8219 604.75999 1144.8098 604.86719 1144.7988 C 604.97572 1144.8133 605.0837 1144.8265 605.19727 1144.8281 C 605.30725 1144.8297 605.41398 1144.8192 605.51953 1144.8086 C 605.6282 1144.8231 605.73785 1144.8363 605.85156 1144.8379 C 605.96526 1144.8395 606.07458 1144.8297 606.18359 1144.8184 C 606.28967 1144.8321 606.39501 1144.8461 606.50586 1144.8477 C 606.61756 1144.8492 606.72483 1144.8371 606.83203 1144.8262 C 606.94005 1144.8405 607.04906 1144.8539 607.16211 1144.8555 C 607.27247 1144.857 607.3784 1144.8466 607.48438 1144.8359 C 607.59299 1144.8504 607.7027 1144.8636 607.81641 1144.8652 C 607.92943 1144.8668 608.03812 1144.8569 608.14648 1144.8457 C 608.25195 1144.8593 608.35661 1144.8734 608.4668 1144.875 C 608.5813 1144.8766 608.69298 1144.867 608.80273 1144.8555 C 608.90895 1144.8693 609.01594 1144.8832 609.12695 1144.8848 C 609.23799 1144.8863 609.34458 1144.8741 609.45117 1144.8633 C 609.55881 1144.8775 609.66679 1144.891 609.7793 1144.8926 C 609.88966 1144.8941 609.99559 1144.8837 610.10156 1144.873 C 610.21083 1144.8877 610.32117 1144.9007 610.43555 1144.9023 C 611.60197 1144.9188 612.55795 1144.2275 612.57031 1143.3516 L 613.32031 1090.2852 C 613.72783 1061.419 633.13648 1025.8525 656.58984 1010.9961 C 669.18833 1003.0131 676.68188 991.94061 677.15039 980.62109 C 677.55981 970.55287 672.50016 961.20765 662.89844 954.19141 C 657.44346 950.20701 655.42156 945.56361 656.89258 940.38086 C 660.46348 927.78401 684.28312 913.86939 717.57812 904.9375 L 793.68359 884.51758 C 819.14714 877.68835 833.41329 867.83068 833.85156 856.75977 C 833.8532 856.64378 833.85779 856.53386 833.85938 856.42188 C 834.01398 845.47097 820.58353 834.95645 795.97461 826.78125 L 772.63086 819.02734 C 749.25101 811.25853 733.90546 798.45442 729.41992 782.97656 C 724.93973 767.49878 731.85637 751.21175 748.9043 737.125 L 792.63477 700.98828 C 829.61349 670.42724 831.1162 619.37863 795.98828 587.18555 L 757.71289 552.09961 C 740.90626 536.69383 734.82271 520.12972 740.5957 505.46875 C 745.93082 491.91171 761.0336 481.59172 783.12891 476.41211 C 811.09838 469.85128 826.24384 461.66008 825.92188 453.51172 C 825.71844 448.9894 820.57815 442.65882 797.27734 438.18945 C 768.71081 432.70666 758.24034 426.01376 757.95703 421.94336 C 757.75752 419.13126 762.14077 416.44638 770.28711 414.28516 C 783.35778 410.81432 787.02034 404.80943 787.78711 400.38281 C 789.54325 390.3386 778.24133 377.91232 757.60547 367.08594 C 735.56354 355.51664 720.27345 340.46523 718.65625 328.74023 C 718.00983 324.07464 719.54424 320.25037 723.20898 317.38281 C 738.07216 305.74146 728.73661 266.63448 702.40039 230.20508 L 673.70703 190.50977 C 647.91876 154.83518 627.18754 108.14166 627.49414 86.423828 L 628.05469 46.623047 C 628.06704 45.748134 627.13127 45.028186 625.96484 45.011719 C 625.85314 45.010142 625.74587 45.022253 625.63867 45.033203 C 625.53061 45.018902 625.42164 45.005502 625.30859 45.003906 C 625.19449 45.002295 625.08402 45.01193 624.97461 45.023438 C 624.86899 45.009763 624.76269 44.995698 624.65234 44.994141 C 624.53997 44.992554 624.43203 45.004537 624.32422 45.015625 C 624.21555 45.001168 624.1059 44.987933 623.99219 44.986328 C 623.88249 44.984779 623.77724 44.995319 623.67188 45.005859 C 623.56339 44.991438 623.45536 44.978166 623.3418 44.976562 C 623.23181 44.97501 623.12508 44.985521 623.01953 44.996094 C 622.91086 44.981716 622.80121 44.968305 622.6875 44.966797 C 622.57301 44.965181 622.46318 44.974825 622.35352 44.986328 C 622.2492 44.972993 622.14404 44.960522 622.03516 44.958984 C 621.92413 44.957417 621.81752 44.967704 621.71094 44.978516 C 621.60156 44.96398 621.49146 44.950737 621.37695 44.949219 C 621.26792 44.94768 621.16335 44.958344 621.05859 44.96875 C 620.94936 44.954134 620.839 44.939115 620.72461 44.9375 C 620.6129 44.935923 620.50564 44.948034 620.39844 44.958984 C 620.29037 44.944684 620.18141 44.931283 620.06836 44.929688 z M 621.70898 137.47852 C 622.40161 155.24287 623.36779 174.15527 624.5 190.68555 L 627.19922 230.00977 C 629.62912 265.4816 630.20724 303.51773 628.48828 314.80859 C 626.74137 326.28108 628.18777 349.63658 631.70898 366.875 C 635.1131 383.50971 635.5601 403.45097 632.6875 410.41211 C 629.55742 418.00468 630.80548 430.43361 635.47461 438.11328 C 639.6918 445.0535 638.72862 460.70733 633.36914 472.29883 C 627.68442 484.58781 625.88283 520.09719 629.34375 551.45117 L 633.16016 586.05078 C 636.59548 617.13537 635.80432 667.14079 631.39844 697.51562 L 626.07812 734.19336 C 621.63947 764.80675 622.40972 802.77731 627.78906 818.83984 L 630.29297 826.30078 C 635.54941 841.98154 635.14273 866.19311 629.39258 880.27734 L 620.66602 901.64844 C 614.75254 916.1314 611.6605 939.99188 613.76562 954.83008 C 615.83867 969.38479 615.22505 993.68072 612.40039 1008.9844 C 611.16757 1015.6663 609.98269 1026.3673 608.98828 1038.6172 C 608.33894 1026.343 607.4559 1015.6121 606.41211 1008.8984 C 604.02052 993.52615 604.09292 969.22991 606.57617 954.72852 C 609.10994 939.96181 606.68579 916.02218 601.18359 901.37305 L 593.06055 879.76367 C 587.71028 865.52273 587.99052 841.30733 593.6875 825.7832 L 596.39648 818.39648 C 602.22984 802.48924 604.07278 764.55663 600.49609 733.83008 L 596.21289 697.01758 C 592.67017 666.53553 593.29075 616.52909 597.59961 585.54883 L 602.39258 551.06836 C 606.7373 519.81958 605.93312 484.27844 600.60156 471.83594 C 595.57269 460.10378 595.05352 444.42198 599.46094 437.60352 C 604.34375 430.05269 605.94311 417.66706 603.03125 409.99219 C 600.35371 402.94769 601.36454 383.03596 605.23828 366.5 C 609.24472 349.36785 611.34422 326.06215 609.92188 314.54492 C 608.52624 303.21809 610.17771 265.20849 613.60938 229.81641 L 617.41406 190.58398 C 619.01265 174.09428 620.51415 155.21781 621.70898 137.47852 z M 617.46094 137.7207 C 616.27198 155.31082 614.78537 173.99178 613.20117 190.33008 L 609.39648 229.56445 C 605.94945 265.09833 604.29779 303.34037 605.7168 314.81055 C 607.11301 326.09638 605.02739 349.02679 601.07227 365.93164 C 597.04333 383.14248 596.09727 403.28568 598.9668 410.83594 C 601.59141 417.74868 600.07672 429.37068 595.6543 436.21094 C 590.76328 443.77465 591.17728 460.17482 596.58008 472.77734 C 601.76291 484.86871 602.48688 519.83431 598.19141 550.71875 L 593.39844 585.19336 C 589.06576 616.3463 588.44204 666.61824 592.00781 697.26562 L 596.29102 734.08398 C 599.8281 764.49194 598.0478 801.9305 592.32031 817.5332 L 589.61133 824.92188 C 583.74609 840.91067 583.47128 865.88822 588.99805 880.5957 L 597.11719 902.20508 C 602.49329 916.50939 604.85205 939.88407 602.38867 954.30273 C 599.8651 969.00958 599.79406 993.6545 602.21875 1009.2383 C 603.23574 1015.7769 604.097 1026.168 604.73828 1038.082 C 602.43476 1025.8011 599.44187 1015.145 596.11523 1008.3867 C 588.59964 993.13211 588.13458 969.14569 595.07227 954.9082 C 602.39511 939.89308 594.37851 915.45949 577.20703 900.43359 L 552.24023 878.58789 C 536.15249 864.51339 536.30942 840.81889 552.5957 825.7793 L 560.51562 818.46875 C 577.79166 802.51803 582.33054 764.22827 570.63672 733.12109 L 556.75195 696.16797 C 545.31595 665.7305 545.76329 615.98042 557.75391 585.26562 L 571.16406 550.9082 C 583.43218 519.46925 579.91997 483.48093 563.32227 470.69336 C 554.49534 463.88808 549.76528 455.57214 550.6582 448.45703 C 551.2402 443.86579 554.0966 440.1275 558.92383 437.65039 C 567.22148 433.3851 572.58257 427.3449 573.62109 421.08594 C 574.37467 416.55212 572.69178 412.21932 568.875 408.91211 C 560.93643 402.03636 563.46822 382.61638 574.38672 366.50391 C 586.05981 349.28797 591.74498 325.6981 587.07227 313.91797 C 582.68589 302.86995 586.66791 264.3278 595.76758 229.75781 L 606.06836 190.61328 C 610.38813 174.21026 614.37738 155.39843 617.46094 137.7207 z M 625.94531 137.83008 C 628.52871 155.59006 631.98633 174.51176 635.8418 191.03516 L 645.03711 230.45312 C 653.15595 265.2642 656.05017 303.90344 651.34961 314.82617 C 646.34629 326.4637 651.36382 350.21142 662.54492 367.75 C 673.00818 384.16734 674.98288 403.65091 666.85742 410.29688 C 662.9488 413.49502 661.14615 417.78175 661.77148 422.33203 C 662.6369 428.61887 667.8201 434.8068 675.99805 439.30469 C 680.74941 441.91702 683.49902 445.734 683.95117 450.33984 C 684.64032 457.46928 679.68544 465.6556 670.66992 472.20898 C 653.71384 484.52286 649.18538 520.39605 660.56641 552.17188 L 673.00195 586.89258 C 684.11804 617.93459 683.1618 667.6748 670.87109 697.7793 L 655.94727 734.32812 C 643.38393 765.09584 646.83944 803.49378 663.6543 819.92578 L 671.36719 827.45703 C 687.22375 842.95041 686.71334 866.63323 670.22656 880.25586 L 644.65625 901.38672 C 627.07011 915.92192 618.36581 940.11518 625.25781 955.33398 C 631.79088 969.75664 630.65016 993.72529 622.71094 1008.7617 C 619.19517 1015.419 615.90298 1025.9797 613.25391 1038.1816 C 614.23093 1026.2987 615.38542 1015.9436 616.58594 1009.4395 C 619.45096 993.92735 620.07413 969.29065 617.9707 954.52148 C 615.91001 940.03795 618.93256 916.74062 624.70898 902.59375 L 633.43164 881.22266 C 636.43804 873.87136 638.03188 863.85314 638.17578 853.66016 C 638.31662 843.68415 637.06967 833.54136 634.38672 825.55469 L 631.88672 818.0918 C 626.60197 802.33363 625.88335 764.85444 630.27734 734.56445 L 635.59375 697.88086 C 640.02877 667.33542 640.82286 617.06635 637.36719 585.81445 L 633.55273 551.21875 C 630.1308 520.22736 631.83713 485.2967 637.36328 473.35352 C 643.11969 460.90853 643.99599 444.523 639.31641 436.82617 C 635.09147 429.86684 633.89915 418.20994 636.72461 411.36914 C 639.80337 403.90886 639.4262 383.74455 635.88477 366.42383 C 632.4124 349.41712 630.97325 326.43333 632.6875 315.19141 C 634.42722 303.75483 633.85806 265.48405 631.41406 229.875 L 628.7207 190.54883 C 627.59778 174.16499 626.63712 155.44727 625.94531 137.83008 z M 613.17383 137.88477 C 610.11807 155.31051 606.1844 173.81446 601.92969 189.98242 L 591.625 229.12305 C 582.25701 264.71335 578.39754 303.14238 583.0293 314.79492 C 587.44014 325.90829 581.87404 348.4568 570.61719 365.06055 C 558.7994 382.49146 556.58969 403.08648 565.69141 410.96875 C 568.75035 413.6212 570.05123 416.97323 569.42969 420.67383 C 568.53603 426.04275 563.8273 431.27893 556.51367 435.03906 C 550.63775 438.05842 547.15738 442.58317 546.45898 448.13086 C 545.42767 456.1511 550.6171 465.41927 560.30469 472.88477 C 575.9492 484.93981 579.00567 519.52989 567.10938 550 L 553.69727 584.35352 C 541.51948 615.54672 541.06923 666.08294 552.68555 697 L 566.57422 733.95117 C 577.94079 764.19464 573.74301 801.21252 557.22656 816.46289 L 549.30859 823.7793 C 531.79834 839.94373 531.68458 865.44628 549.04492 880.63086 L 574.00781 902.48047 C 590.28831 916.72171 597.95902 939.75008 591.10547 953.80273 C 583.872 968.6401 584.34058 993.60308 592.15234 1009.4609 C 595.32644 1015.9052 598.18587 1026.013 600.41797 1037.6953 C 596.45396 1025.4091 591.35843 1014.7463 585.74805 1007.9551 C 573.21189 992.7806 572.20724 969.0353 583.51172 955.02148 C 595.73852 939.85657 582.17818 915.1025 553.27539 899.83398 L 511.4668 877.75391 C 498.73779 871.03355 491.61785 861.99266 491.41797 852.29688 C 491.16024 842.24924 498.34529 832.7393 511.51758 825.47852 L 524.64648 818.24023 C 553.42353 802.37488 560.63646 763.88943 540.72461 732.44922 L 517.23633 695.36133 C 497.97419 664.94539 498.25491 615.4128 517.85547 584.93945 L 539.88281 550.70898 C 560.18545 519.16044 554.01835 482.9215 526.14453 469.92773 C 512.0011 463.33943 504.00687 455.33998 504.70312 448.61914 C 505.21484 443.79988 510.04966 439.86748 518.68359 437.24609 C 533.19739 432.84053 542.0724 426.45268 543.0293 419.72852 C 543.46819 416.65941 542.38351 412.15183 534.76758 408.16992 C 530.62328 406.0062 528.01057 402.52877 527.21484 398.12109 C 525.55692 388.90177 531.78265 376.74106 543.47266 366.37305 C 562.90913 349.1317 572.19453 325.33844 564.16797 313.33594 C 556.82338 302.34516 563.11333 264.04533 577.90039 229.68164 L 594.70117 190.63086 C 601.73581 174.28271 608.2006 155.52859 613.17383 137.88477 z M 630.22656 138.09766 C 634.70113 155.8828 640.63617 174.82331 647.21094 191.37305 L 662.90234 230.88281 C 676.71343 265.65024 681.9194 304.11957 674.26758 314.89062 C 665.90546 326.65676 674.51235 350.70899 693.45703 368.49219 C 704.8497 379.18607 710.74337 391.52495 708.80859 400.68555 C 707.88743 405.06798 705.18031 408.47072 700.97656 410.51758 C 693.25126 414.2829 692.04127 418.7466 692.39453 421.83789 C 693.16121 428.58739 701.84734 435.22351 716.23633 440.03711 C 724.78882 442.90012 729.51322 446.96605 729.88867 451.79883 C 730.42495 458.49207 722.1799 466.3047 707.85742 472.49414 C 679.62788 484.69686 672.44186 520.74642 691.8418 552.85547 L 712.89062 587.69531 C 731.62713 618.70989 730.50555 668.23073 710.39648 698.08984 L 685.86914 734.5 C 665.08168 765.36563 671.20187 804.03458 699.51953 820.70898 L 712.44141 828.31641 C 725.40211 835.94812 732.23979 845.70397 731.77539 855.69141 C 731.29787 865.37763 723.92732 874.21197 711.01367 880.57031 L 668.59766 901.46289 C 639.27669 915.90943 625.02249 940.26835 636.82031 955.77344 C 647.72335 970.10077 646.05014 993.8075 633.08789 1008.625 C 627.28294 1015.2616 621.88175 1025.7901 617.57031 1037.9746 C 620.13253 1026.3435 623.27836 1016.3062 626.63672 1009.9473 C 634.89306 994.31426 636.06633 969.37048 629.25586 954.33984 C 622.8017 940.10232 631.1268 917.29751 647.79883 903.52148 L 673.36523 882.38672 C 682.357 874.95991 686.96042 864.76843 687.10742 854.35547 C 687.2485 844.17345 683.13431 833.77861 674.70703 825.54883 L 666.99414 818.01172 C 650.91479 802.30117 647.76997 765.18315 659.98047 735.26953 L 674.90625 698.72461 C 687.39477 668.14485 688.36452 617.61824 677.07617 586.09375 L 664.64062 551.37695 C 653.6132 520.58622 657.64189 486.09299 673.61914 474.48438 C 683.51361 467.29533 688.94661 458.17373 688.16211 450.13086 C 687.61657 444.5666 684.27015 439.94381 678.48047 436.75977 C 671.27189 432.79461 666.71244 427.42716 665.9707 422.03516 C 665.45786 418.32055 666.84778 415.00343 669.98438 412.43945 C 679.29827 404.81917 677.67452 384.16774 666.35352 366.41016 C 655.56987 349.49525 650.64631 326.79988 655.36914 315.81445 C 660.32403 304.29425 657.55565 265.77116 649.19336 229.93555 L 640 190.51953 C 636.19999 174.22873 632.79007 155.60935 630.22656 138.09766 z M 608.7207 138.38281 C 603.82474 155.55914 597.52297 173.74033 590.67969 189.64453 L 573.87695 228.69336 C 558.54277 264.32645 552.4962 302.9218 560.39453 314.73047 C 567.60963 325.52239 558.37506 348.23472 540.23242 364.32422 C 527.80479 375.35089 521.21408 388.46583 523.03125 398.52148 C 523.99461 403.83461 527.22138 408.06786 532.36719 410.75977 C 537.04339 413.20602 539.28568 416.16726 538.82617 419.37109 C 538.05156 424.8267 529.91792 430.4154 517.06836 434.31641 C 507.0118 437.36775 501.12739 442.35012 500.49219 448.34375 C 499.64067 456.40753 508.1785 465.26834 523.92969 472.60742 C 550.01786 484.7669 555.4683 519.17713 536.07422 549.31836 L 514.04883 583.55078 C 493.96463 614.77238 493.68253 665.52546 513.42578 696.69727 L 536.91211 733.78125 C 556.00172 763.92273 549.36666 800.66555 522.125 815.6875 L 508.99414 822.92773 C 494.70525 830.80781 486.97249 841.31312 487.19531 852.31836 C 487.42194 863.05463 495.18231 873.00467 509.05078 880.32617 L 550.85938 902.41406 C 577.9808 916.73434 591.0066 939.59366 579.89258 953.36914 C 567.85764 968.29074 568.87174 993.5173 582.16211 1009.6035 C 587.38096 1015.9202 592.14328 1025.7195 595.91992 1037.0801 C 590.31844 1024.9187 583.18441 1014.3666 575.36523 1007.6074 C 557.85319 992.47171 556.31386 968.89654 571.92969 955.05859 C 577.48367 950.1365 579.43482 943.94706 577.55664 937.17188 C 573.83875 923.73605 555.41462 909.25797 529.47461 899.38281 L 470.81641 877.06445 C 452.7069 870.17113 442.65113 861.02745 442.49414 851.32227 C 442.3874 841.46578 452.30151 832.15938 470.54883 825.03125 L 488.88867 817.86719 C 506.84443 810.84996 519.48389 798.84356 524.46875 784.06445 C 530.19025 767.08753 525.20688 748.04832 510.78516 731.82812 L 477.69531 694.60547 C 450.65144 664.18968 450.76277 614.82668 477.9375 584.57227 L 508.57617 550.46289 C 523.78534 533.5299 528.85668 514.39367 522.48438 497.95508 C 517.47492 485.03708 505.62209 474.86324 489.10938 469.30859 C 469.54678 462.73079 458.16612 454.91349 458.7832 448.31055 C 459.20415 443.48401 466.25091 439.37784 478.62695 436.73828 C 499.26121 432.34312 511.56189 425.83503 512.375 418.88281 C 512.7267 415.83747 511.0087 411.42672 500.79297 407.57812 C 494.42028 405.17593 490.63231 401.34398 489.82812 396.49414 C 488.32714 387.42305 496.83492 376.07169 512.57617 366.12891 C 539.80868 348.91561 552.66738 325.00311 541.23438 312.8125 C 530.9731 301.87156 539.57139 263.7597 560.00586 229.59375 L 583.31055 190.63281 C 592.99347 174.44941 601.875 155.88958 608.7207 138.38281 z M 634.65625 138.70703 C 641.0072 156.41208 649.36802 175.23059 658.5957 191.69531 L 680.78906 231.29883 C 700.25755 266.03011 707.77434 304.37178 697.20703 315.01367 C 685.43044 326.87661 697.60716 351.14294 724.34961 369.11523 C 739.80386 379.50143 747.9791 391.08407 746.22656 400.11523 C 745.28847 404.93947 741.39098 408.66141 734.95703 410.88281 C 724.63273 414.44043 722.7911 418.80037 723.05664 421.85742 C 723.67452 428.82884 735.78907 435.6813 756.29102 440.6582 C 768.58494 443.64604 775.51359 447.94862 775.80078 452.78516 C 776.16309 459.30592 764.63119 466.88903 744.89062 472.91797 C 728.22769 478.00326 716.09088 487.84184 710.71875 500.61328 C 703.88775 516.85447 708.41489 536.13156 723.14258 553.49219 L 752.80273 588.45312 C 779.11658 619.46267 777.83243 668.80695 749.94336 698.44922 L 715.81445 734.72266 C 700.94054 750.53227 695.42006 769.43006 700.66016 786.55273 C 705.22716 801.46669 717.52098 813.82243 735.27148 821.34375 L 753.40234 829.02539 C 771.44248 836.66681 781.17167 846.29029 780.70312 856.09766 C 780.27355 865.79556 769.96155 874.65093 751.66602 881.0293 L 692.40625 901.68359 C 666.19781 910.82254 647.36903 924.77404 643.27734 938.09961 C 641.20456 944.82502 642.97842 951.05979 648.39258 956.13672 C 663.60887 970.40994 661.40965 993.93108 643.47461 1008.5684 C 635.47406 1015.1003 628.04853 1025.4401 622.10742 1037.4297 C 626.2027 1026.1888 631.23518 1016.5341 636.62695 1010.3711 C 650.36079 994.6664 652.09268 969.47902 640.48242 954.22461 C 629.7617 940.14087 643.4285 917.66437 670.93945 904.10938 L 713.35547 883.21094 C 727.4251 876.28386 735.46658 866.55768 735.99219 855.83203 C 736.00667 855.56321 736.01378 855.29436 736.01758 855.02539 C 736.16969 844.25046 728.75011 833.9104 715.03125 825.83594 L 702.10547 818.22852 C 675.29873 802.44353 669.70774 765.52807 689.64062 735.9375 L 714.16602 699.53125 C 734.77872 668.92717 735.9267 618.18325 716.73047 586.41211 L 695.68555 551.57031 C 677.15005 520.8956 683.56531 486.64959 709.98633 475.23242 C 725.94109 468.34096 734.73369 459.73638 734.09961 451.64062 C 733.63384 445.63245 727.89477 440.48635 717.92969 437.15234 C 705.19537 432.89016 697.22391 427.07301 696.59961 421.59766 C 696.2412 418.39728 698.55546 415.48315 703.29883 413.17188 C 708.51991 410.62632 711.86952 406.48609 712.97852 401.19922 C 715.07611 391.20183 708.86077 377.90732 696.74805 366.5332 C 679.06555 349.93494 670.48114 326.97657 677.99805 316.39062 C 686.22659 304.80963 681.27142 266.05658 666.94922 230.00781 L 651.25391 190.5 C 644.85755 174.39459 639.0666 156.02611 634.65625 138.70703 z M 604.0293 139.16797 C 597.33242 156.01163 588.75887 173.76394 579.45312 189.32031 L 556.15039 228.28125 C 534.81682 263.94165 526.58182 302.67206 537.7832 314.60938 C 547.818 325.31109 535.0175 347.78896 509.83594 363.70508 C 493.01057 374.33263 483.96755 386.72379 485.64062 396.85742 C 486.62031 402.81284 491.21328 407.49348 498.91797 410.39453 C 503.37776 412.07765 508.61498 414.88695 508.16992 418.58203 C 507.6703 422.8284 499.33851 429.02796 477.4375 433.69727 C 459.2347 437.5777 454.95089 443.65711 454.56641 448.07812 C 453.89946 456.13051 465.83265 464.93219 487.40625 472.18945 C 502.7538 477.35462 513.77484 486.8115 518.42969 498.81641 C 524.45132 514.34696 519.57786 532.52389 505.0625 548.68359 L 474.42383 582.79688 C 446.38157 614.01313 446.27553 664.95186 474.17969 696.33789 L 507.26953 733.56055 C 521.02688 749.03729 525.80119 767.15468 520.36719 783.26758 C 515.68069 797.16981 503.79429 808.4603 486.9082 815.05859 L 468.56836 822.22461 C 449.15458 829.81232 438.42113 839.95121 438.26758 850.82812 C 438.26522 850.99511 438.26785 851.16894 438.26953 851.33398 C 438.44499 862.28655 449.33151 872.42157 468.92578 879.87891 L 527.58594 902.20117 C 552.39749 911.64236 569.96023 925.27998 573.41992 937.78906 C 575.04748 943.66862 573.46088 948.78864 568.69727 953.00781 C 551.79855 967.97876 553.36109 993.39676 572.18555 1009.6621 C 579.23265 1015.7559 585.70543 1025.0667 590.94141 1035.875 C 583.78273 1024.1099 574.79655 1013.9235 564.99609 1007.3203 C 553.51889 999.58553 546.85133 989.16074 546.7168 978.7168 C 546.62202 969.52754 551.44472 961.17393 560.35547 955.03711 C 566.9625 950.49492 569.61795 944.77296 568.0293 938.50391 C 564.49506 924.55463 540.63583 909.41553 505.75781 898.99414 L 430.25391 876.43359 C 407.05472 869.49942 393.6831 860.04384 393.57617 850.48438 C 393.57339 850.39733 393.57302 850.30569 393.57422 850.2207 C 393.70793 840.74965 406.83384 831.39889 429.66406 824.52148 L 453.21484 817.42969 C 478.09308 809.93613 494.68525 796.80098 499.93164 780.44141 C 505.17398 764.08478 498.39349 746.61726 480.83789 731.25391 L 438.14648 693.89453 C 403.35337 663.44935 403.29197 614.224 438.00781 584.16406 L 477.26172 550.17578 C 495.17572 534.66211 502.20653 516.79637 496.56055 501.16211 C 491.23208 486.41842 475.46758 474.90375 452.16797 468.74023 C 427.08429 462.10349 412.37091 454.23286 412.87305 447.82031 C 413.22645 443.04483 422.62367 438.80919 438.6543 436.19922 C 465.31214 431.86109 481.00264 425.31989 481.70117 418.24805 C 481.98682 415.24278 479.6776 410.82076 466.90039 407.04102 C 458.20748 404.46905 453.21996 400.40241 452.47852 395.27344 C 451.19119 386.40338 462.12979 375.39203 481.71875 365.80859 C 505.42414 354.21007 521.46944 339.08503 523.59375 326.34375 C 524.52314 320.81032 522.68693 315.9752 518.29883 312.33789 C 505.13723 301.42401 516.0359 263.47888 542.10352 229.48047 L 571.90625 190.61133 C 584.11671 174.68863 595.34224 156.44238 604.0293 139.16797 z M 639.33398 139.6582 C 647.53045 157.17335 658.23807 175.73238 669.99609 191.99609 L 698.68945 231.69141 C 723.78699 266.40715 733.61176 304.64156 720.14453 315.1875 C 715.6555 318.69948 713.69199 323.49871 714.45703 329.03906 C 716.22081 341.83524 731.83204 357.40684 755.19922 369.66992 C 774.50979 379.80552 785.12427 391.11094 783.59766 399.94727 C 782.71574 405.05232 777.61238 408.97918 768.84766 411.30469 C 755.96884 414.72223 753.51549 419.07542 753.74023 422.08789 C 754.23752 429.17662 769.73696 436.15911 796.26172 441.24805 C 812.21227 444.30951 821.48467 448.80824 821.70312 453.5918 C 821.97033 460.12822 807.09292 467.47147 781.83594 473.39453 C 758.3676 478.8988 742.28552 489.96339 736.54297 504.55078 C 730.45651 520.0224 736.98297 538.07669 754.44922 554.08984 L 792.72852 589.17188 C 826.58462 620.19989 825.13074 669.40756 789.49609 698.85547 L 745.76367 734.99219 C 727.78136 749.85383 720.51909 767.12499 725.29492 783.62305 C 730.07334 800.12714 746.28514 813.72306 770.94727 821.91602 L 794.28711 829.66992 C 816.9181 837.18914 829.77238 846.9059 829.63867 856.37695 C 829.63747 856.46194 829.6321 856.55263 829.63086 856.64062 C 829.24877 866.19318 815.61555 875.26648 792.22852 881.54297 L 716.12305 901.96289 C 680.96608 911.39555 656.68833 925.85527 652.76172 939.69922 C 650.99662 945.92892 653.4861 951.71649 659.96094 956.44336 C 668.69888 962.83034 673.30451 971.36738 672.92969 980.5 C 672.49641 990.93292 665.54264 1001.1666 653.84766 1008.5742 C 643.87152 1014.8942 634.60665 1024.8162 627.12109 1036.3652 C 632.6589 1025.7176 639.38777 1016.5997 646.59961 1010.7109 C 665.87305 994.98344 668.15282 969.62365 651.6875 954.17969 C 647.04492 949.82572 645.59914 944.65832 647.39062 938.83203 C 651.20072 926.42558 669.14532 913.28972 694.21484 904.55273 L 753.47852 883.89648 C 773.27149 876.9952 784.4412 867.17177 784.92578 856.22852 C 784.93482 856.06163 784.9371 855.88964 784.93945 855.72266 C 785.09301 844.84574 774.65011 834.40808 755.46094 826.27539 L 737.33008 818.59375 C 720.63699 811.5214 709.07671 799.9001 704.7832 785.87109 C 699.80224 769.60916 705.08857 751.63495 719.27734 736.55273 L 753.40625 700.2793 C 782.18934 669.69156 783.51831 618.77075 756.37109 586.77734 L 726.70508 551.8125 C 712.6557 535.24953 708.29835 516.93932 714.75195 501.58789 C 719.74384 489.71917 731.02829 480.57645 746.51953 475.84766 C 768.28669 469.20526 780.48279 460.78714 780.02539 452.67188 C 779.76051 448.24269 775.65511 442.04313 757.56641 437.65234 C 735.80995 432.3667 727.65226 425.93453 727.27539 421.67578 C 726.93268 417.93157 732.24643 415.30851 736.75195 413.75195 C 744.53549 411.06856 749.25874 406.52104 750.41016 400.5957 C 752.37908 390.53049 743.68014 377.87174 727.16016 366.77344 C 702.43656 350.15578 690.26997 327.32125 700.60547 316.91211 C 712.14349 305.28782 705.0026 266.34412 684.68555 230.0957 L 662.48828 190.49219 C 653.62335 174.67717 645.553 156.68661 639.33398 139.6582 z "
       transform="matrix(0.01411623,0.74829105,-0.99990036,0.0105641,1186.1715,133.32649)"
       id="path5" /></g></svg>